<svg width="176" height="36" viewBox="0 0 176 36" fill="none" xmlns="http://www.w3.org/2000/svg">
<path d="M17.7463 1.675V4.93H11.2713V26H7.28125V4.93H0.77125V1.675H17.7463ZM25.7771 9.515C26.3604 8.535 27.1304 7.77667 28.0871 7.24C29.0671 6.68 30.2221 6.4 31.5521 6.4V10.53H30.5371C28.9738 10.53 27.7838 10.9267 26.9671 11.72C26.1738 12.5133 25.7771 13.89 25.7771 15.85V26H21.7871V6.715H25.7771V9.515ZM52.5797 6.715L40.7497 35.065H36.6197L40.5397 25.685L32.9447 6.715H37.3897L42.8147 21.415L48.4497 6.715H52.5797ZM59.5808 9.585C60.2575 8.65167 61.1792 7.89333 62.3458 7.31C63.5358 6.70333 64.8542 6.4 66.3008 6.4C68.0042 6.4 69.5442 6.80833 70.9208 7.625C72.2975 8.44167 73.3825 9.60833 74.1758 11.125C74.9692 12.6183 75.3658 14.3333 75.3658 16.27C75.3658 18.2067 74.9692 19.945 74.1758 21.485C73.3825 23.0017 72.2858 24.1917 70.8858 25.055C69.5092 25.895 67.9808 26.315 66.3008 26.315C64.8075 26.315 63.4775 26.0233 62.3108 25.44C61.1675 24.8567 60.2575 24.11 59.5808 23.2V26H55.5908V0.0999997H59.5808V9.585ZM71.3058 16.27C71.3058 14.94 71.0258 13.7967 70.4658 12.84C69.9292 11.86 69.2058 11.125 68.2958 10.635C67.4092 10.1217 66.4525 9.865 65.4258 9.865C64.4225 9.865 63.4658 10.1217 62.5558 10.635C61.6692 11.1483 60.9458 11.895 60.3858 12.875C59.8492 13.855 59.5808 15.01 59.5808 16.34C59.5808 17.67 59.8492 18.8367 60.3858 19.84C60.9458 20.82 61.6692 21.5667 62.5558 22.08C63.4658 22.5933 64.4225 22.85 65.4258 22.85C66.4525 22.85 67.4092 22.5933 68.2958 22.08C69.2058 21.5433 69.9292 20.7733 70.4658 19.77C71.0258 18.7667 71.3058 17.6 71.3058 16.27ZM96.9865 15.885C96.9865 16.6083 96.9399 17.2617 96.8465 17.845H82.1115C82.2282 19.385 82.7999 20.6217 83.8265 21.555C84.8532 22.4883 86.1132 22.955 87.6065 22.955C89.7532 22.955 91.2699 22.0567 92.1565 20.26H96.4615C95.8782 22.0333 94.8165 23.4917 93.2765 24.635C91.7599 25.755 89.8699 26.315 87.6065 26.315C85.7632 26.315 84.1065 25.9067 82.6365 25.09C81.1899 24.25 80.0465 23.0833 79.2065 21.59C78.3899 20.0733 77.9815 18.3233 77.9815 16.34C77.9815 14.3567 78.3782 12.6183 79.1715 11.125C79.9882 9.60833 81.1199 8.44167 82.5665 7.625C84.0365 6.80833 85.7165 6.4 87.6065 6.4C89.4265 6.4 91.0482 6.79667 92.4715 7.59C93.8949 8.38333 95.0032 9.50333 95.7965 10.95C96.5899 12.3733 96.9865 14.0183 96.9865 15.885ZM92.8215 14.625C92.7982 13.155 92.2732 11.9767 91.2465 11.09C90.2199 10.2033 88.9482 9.76 87.4315 9.76C86.0549 9.76 84.8765 10.2033 83.8965 11.09C82.9165 11.9533 82.3332 13.1317 82.1465 14.625H92.8215Z" fill="black"/>
<path d="M99.5131 13.75C99.5131 11.3467 100.05 9.2 101.123 7.31C102.22 5.39666 103.701 3.915 105.568 2.865C107.458 1.79167 109.57 1.255 111.903 1.255C114.633 1.255 117.025 1.955 119.078 3.355C121.131 4.755 122.566 6.69167 123.383 9.165H117.748C117.188 7.99833 116.395 7.12333 115.368 6.54C114.365 5.95667 113.198 5.665 111.868 5.665C110.445 5.665 109.173 6.00333 108.053 6.68C106.956 7.33333 106.093 8.26667 105.463 9.48C104.856 10.6933 104.553 12.1167 104.553 13.75C104.553 15.36 104.856 16.7833 105.463 18.02C106.093 19.2333 106.956 20.1783 108.053 20.855C109.173 21.5083 110.445 21.835 111.868 21.835C113.198 21.835 114.365 21.5433 115.368 20.96C116.395 20.3533 117.188 19.4667 117.748 18.3H123.383C122.566 20.7967 121.131 22.745 119.078 24.145C117.048 25.5217 114.656 26.21 111.903 26.21C109.57 26.21 107.458 25.685 105.568 24.635C103.701 23.5617 102.22 22.08 101.123 20.19C100.05 18.3 99.5131 16.1533 99.5131 13.75ZM126.308 16.235C126.308 14.275 126.693 12.5367 127.463 11.02C128.257 9.50333 129.318 8.33667 130.648 7.52C132.002 6.70333 133.507 6.295 135.163 6.295C136.61 6.295 137.87 6.58667 138.943 7.17C140.04 7.75333 140.915 8.48833 141.568 9.375V6.61H146.503V26H141.568V23.165C140.938 24.075 140.063 24.8333 138.943 25.44C137.847 26.0233 136.575 26.315 135.128 26.315C133.495 26.315 132.002 25.895 130.648 25.055C129.318 24.215 128.257 23.0367 127.463 21.52C126.693 19.98 126.308 18.2183 126.308 16.235ZM141.568 16.305C141.568 15.115 141.335 14.1 140.868 13.26C140.402 12.3967 139.772 11.7433 138.978 11.3C138.185 10.8333 137.333 10.6 136.423 10.6C135.513 10.6 134.673 10.8217 133.903 11.265C133.133 11.7083 132.503 12.3617 132.013 13.225C131.547 14.065 131.313 15.0683 131.313 16.235C131.313 17.4017 131.547 18.4283 132.013 19.315C132.503 20.1783 133.133 20.8433 133.903 21.31C134.697 21.7767 135.537 22.01 136.423 22.01C137.333 22.01 138.185 21.7883 138.978 21.345C139.772 20.8783 140.402 20.225 140.868 19.385C141.335 18.5217 141.568 17.495 141.568 16.305ZM156.189 9.62C156.819 8.59333 157.636 7.78833 158.639 7.205C159.666 6.62167 160.832 6.33 162.139 6.33V11.475H160.844C159.304 11.475 158.137 11.8367 157.344 12.56C156.574 13.2833 156.189 14.5433 156.189 16.34V26H151.289V6.61H156.189V9.62ZM171.144 10.635V20.015C171.144 20.6683 171.296 21.1467 171.599 21.45C171.926 21.73 172.463 21.87 173.209 21.87H175.484V26H172.404C168.274 26 166.209 23.9933 166.209 19.98V10.635H163.899V6.61H166.209V1.815H171.144V6.61H175.484V10.635H171.144Z" fill="#007D14"/>
</svg>
